<?xml version="1.0" encoding="UTF-8"?>
<!-- Created with Inkscape (http://www.inkscape.org/) -->
<svg width="123.38" height="40" version="1.1" viewBox="0 0 32.645 10.583" xmlns="http://www.w3.org/2000/svg">
 <defs>
  <filter id="filter0_d" x=".57201" y=".918" width="123.38" height="25.342" color-interpolation-filters="sRGB" filterUnits="userSpaceOnUse">
   <feFlood flood-opacity="0" result="BackgroundImageFix"/>
   <feColorMatrix in="SourceAlpha" result="hardAlpha" values="0 0 0 0 0 0 0 0 0 0 0 0 0 0 0 0 0 0 127 0"/>
   <feOffset dy="4"/>
   <feGaussianBlur stdDeviation="2"/>
   <feColorMatrix values="0 0 0 0 0 0 0 0 0 0 0 0 0 0 0 0 0 0 0.25 0"/>
   <feBlend in2="BackgroundImageFix" result="effect1_dropShadow"/>
   <feBlend in="SourceGraphic" in2="effect1_dropShadow" result="shape"/>
  </filter>
 </defs>
 <g transform="matrix(.26458 0 0 .26458 -.15134 2.7387)" fill="none">
  <path d="m11.514 1.178h3.224l1.95 12.662 1.456-12.662h3.536l-2.73 16.822h-4.134l-1.69-10.322-1.69 10.322h-4.134l-2.73-16.822h3.536l1.456 12.662zm24.103 4.42h-3.458v-1.326c0-0.13867-0.052-0.26-0.156-0.364-0.0867-0.104-0.1993-0.156-0.338-0.156h-1.43c-0.1387 0-0.26 0.052-0.364 0.156-0.0867 0.104-0.13 0.22533-0.13 0.364v2.99c0 0.13867 0.0433 0.26 0.13 0.364 0.104 0.104 0.2253 0.156 0.364 0.156h2.34c2.1493 0.03467 3.224 1.1787 3.224 3.432v3.614c0 2.288-1.0747 3.432-3.224 3.432h-3.068c-2.1493 0-3.224-1.144-3.224-3.432v-1.742h3.458v1.872c0 0.1387 0.0433 0.26 0.13 0.364 0.104 0.104 0.2253 0.156 0.364 0.156h1.612c0.1387 0 0.2513-0.052 0.338-0.156 0.104-0.104 0.156-0.2253 0.156-0.364v-3.302c0-0.1387-0.052-0.26-0.156-0.364-0.0867-0.104-0.1993-0.156-0.338-0.156h-2.34c-2.1493 0-3.224-1.144-3.224-3.432v-3.354c0-2.288 1.0747-3.432 3.224-3.432h2.886c2.1493 0 3.224 1.144 3.224 3.432zm4.2122-1.326v-3.094h9.1v3.094h-2.73v13.728h-3.64v-13.728zm13.597 12.116c0-0.52 0.182-0.962 0.546-1.326s0.806-0.546 1.326-0.546 0.962 0.182 1.326 0.546 0.546 0.806 0.546 1.326-0.182 0.962-0.546 1.326-0.806 0.546-1.326 0.546-0.962-0.182-1.326-0.546-0.546-0.806-0.546-1.326zm18.614 1.612h-3.64v-13.962c0-0.13867-0.052-0.26-0.156-0.364-0.0867-0.104-0.1994-0.156-0.338-0.156h-1.404c-0.1387 0-0.26 0.052-0.364 0.156-0.0867 0.104-0.13 0.22533-0.13 0.364v13.962h-3.64v-13.65c0-2.288 1.0746-3.432 3.224-3.432h3.224c2.1493 0 3.224 1.144 3.224 3.432zm8.6799-3.016h4.03v3.016h-7.67v-16.822h7.67v2.964h-4.03v3.952h3.77v2.86h-3.77zm14.949-13.806h3.224l1.9503 12.662 1.456-12.662h3.536l-2.73 16.822h-4.1343l-1.69-10.322-1.69 10.322h-4.134l-2.73-16.822h3.536l1.456 12.662zm24.102 4.42h-3.458v-1.326c0-0.13867-0.052-0.26-0.156-0.364-0.086-0.104-0.199-0.156-0.338-0.156h-1.43c-0.138 0-0.26 0.052-0.364 0.156-0.086 0.104-0.13 0.22533-0.13 0.364v2.99c0 0.13867 0.044 0.26 0.13 0.364 0.104 0.104 0.226 0.156 0.364 0.156h2.34c2.15 0.03467 3.224 1.1787 3.224 3.432v3.614c0 2.288-1.074 3.432-3.224 3.432h-3.068c-2.149 0-3.224-1.144-3.224-3.432v-1.742h3.458v1.872c0 0.1387 0.044 0.26 0.13 0.364 0.104 0.104 0.226 0.156 0.364 0.156h1.612c0.139 0 0.252-0.052 0.338-0.156 0.104-0.104 0.156-0.2253 0.156-0.364v-3.302c0-0.1387-0.052-0.26-0.156-0.364-0.086-0.104-0.199-0.156-0.338-0.156h-2.34c-2.149 0-3.224-1.144-3.224-3.432v-3.354c0-2.288 1.075-3.432 3.224-3.432h2.886c2.15 0 3.224 1.144 3.224 3.432z" fill="#fff" filter="url(#filter0_d)"/>
 </g>
</svg>
